<?xml version="1.0" standalone="no"?>
<!DOCTYPE svg PUBLIC "-//W3C//DTD SVG 20010904//EN"
 "http://www.w3.org/TR/2001/REC-SVG-20010904/DTD/svg10.dtd">
<svg version="1.0" xmlns="http://www.w3.org/2000/svg"
 width="1542.000000pt" height="1026.000000pt" viewBox="0 0 1542.000000 1026.000000"
 preserveAspectRatio="xMidYMid meet">

<g transform="translate(0.000000,1026.000000) scale(0.100000,-0.100000)"
fill="#000000" stroke="none">
<path d="M455 10020 c-3 -5 -22 -10 -41 -10 -19 0 -34 -4 -34 -10 0 -5 -7 -10
-15 -10 -8 0 -25 -6 -37 -12 -39 -22 -138 -121 -138 -137 0 -9 -9 -22 -20 -29
-13 -8 -20 -23 -20 -42 0 -17 -4 -30 -10 -30 -5 0 -10 -13 -10 -29 0 -16 -5
-31 -11 -33 -9 -3 -11 -1173 -10 -4623 2 -4909 0 -4671 46 -4760 21 -42 124
-149 166 -173 19 -10 57 -26 84 -35 46 -14 702 -16 7305 -21 5161 -3 7269 -2
7305 6 134 29 256 131 310 260 l30 73 3 1109 c2 769 -1 1112 -8 1121 -8 9 -8
32 0 76 6 41 10 457 10 1163 0 1009 -1 1101 -17 1118 -15 17 -15 19 1 36 15
18 16 184 14 2338 -3 2244 -4 2321 -22 2369 -10 28 -27 59 -37 71 -11 11 -19
25 -19 30 0 16 -120 133 -153 149 -18 8 -58 22 -90 30 -51 13 -880 15 -7317
15 -4828 0 -7261 -3 -7265 -10z m13303 -4971 l-3 -4641 -6517 -4 -6518 -4 0
4645 0 4645 6520 0 6520 0 -2 -4641z m-13604 -34 c4 -3984 6 -4546 19 -4586
51 -156 135 -244 280 -292 62 -20 66 -20 4327 -27 l4265 -6 -4251 -2 c-4165
-2 -4252 -2 -4326 17 -127 33 -210 97 -271 209 -59 109 -56 14 -59 1862 -4
2229 1 7375 6 7369 3 -2 7 -2047 10 -4544z"/>
</g>
</svg>
